<?xml version="1.0" standalone="no"?>
<!DOCTYPE svg PUBLIC "-//W3C//DTD SVG 20010904//EN"
 "http://www.w3.org/TR/2001/REC-SVG-20010904/DTD/svg10.dtd">
<svg version="1.0" xmlns="http://www.w3.org/2000/svg"
 width="1000.000000pt" height="1000.000000pt" viewBox="0 0 1000.000000 1000.000000"
 preserveAspectRatio="xMidYMid meet">

<g transform="translate(0.000000,1000.000000) scale(0.100000,-0.100000)"
fill="#000000" stroke="none">
<path d="M3760 8357 l0 -1642 -369 -369 c-351 -351 -370 -368 -398 -362 -58
13 -101 -60 -60 -101 37 -37 115 2 103 52 -4 17 64 90 369 395 l375 375 0
1647 c0 1092 -3 1648 -10 1648 -7 0 -10 -554 -10 -1643z"/>
<path d="M3881 8328 l-1 -1673 -385 -385 -385 -385 0 -505 0 -505 -185 -185
-185 -185 0 -177 c0 -103 -4 -178 -9 -178 -19 0 -41 -32 -41 -59 0 -33 27 -61
58 -61 27 0 62 33 62 59 0 10 -9 30 -20 44 -18 23 -20 40 -20 199 l0 173 185
185 185 185 0 500 0 500 385 385 385 385 0 1677 c0 1419 -2 1678 -14 1678 -11
0 -14 -259 -15 -1672z"/>
<path d="M4010 8292 l0 -1707 -380 -380 -380 -380 0 -510 0 -510 -180 -180
-180 -180 0 -415 0 -416 -49 -48 c-42 -41 -53 -48 -76 -42 -41 10 -75 -16 -75
-59 0 -40 35 -71 70 -60 25 8 54 50 47 69 -3 8 19 38 54 72 l59 58 0 416 0
415 175 175 175 175 0 510 0 510 380 380 380 380 0 1717 c0 1139 -3 1718 -10
1718 -7 0 -10 -576 -10 -1708z"/>
<path d="M4160 8262 l0 -1737 -385 -385 -385 -385 0 -439 0 -438 -25 -20 c-47
-37 -22 -108 37 -108 56 0 78 73 33 108 l-25 20 0 433 0 433 390 391 390 390
0 1738 c0 1537 -2 1737 -15 1737 -13 0 -15 -200 -15 -1738z"/>
<path d="M4320 8242 l0 -1757 -395 -395 -395 -395 0 -504 0 -505 -181 -182
-181 -182 4 -178 c5 -177 4 -179 -19 -201 -12 -12 -23 -33 -23 -46 0 -47 68
-78 105 -47 25 21 19 77 -10 96 l-25 16 0 182 0 181 175 175 175 175 0 500 0
500 400 400 400 400 0 1762 c0 1560 -2 1763 -15 1763 -13 0 -15 -202 -15
-1758z"/>
<path d="M4460 9762 l0 -237 375 -375 c305 -305 373 -378 369 -395 -14 -55 71
-91 108 -45 24 30 23 46 -7 76 -20 20 -31 24 -57 19 -32 -6 -42 4 -400 362
l-368 369 0 232 c0 148 -4 232 -10 232 -6 0 -10 -86 -10 -238z"/>
<path d="M5410 7870 c-27 -27 -25 -66 5 -92 l25 -22 0 -670 0 -671 120 -120
c96 -96 120 -124 115 -141 -7 -29 30 -74 61 -74 28 0 64 32 64 58 0 36 -29 62
-68 62 -34 0 -47 10 -155 118 l-117 117 0 661 0 660 25 22 c14 13 25 33 25 47
0 30 -32 65 -60 65 -11 0 -29 -9 -40 -20z"/>
<path d="M5160 7570 c-27 -27 -25 -56 5 -86 l25 -25 0 -667 0 -667 120 -120
c110 -110 120 -123 120 -157 0 -60 59 -89 100 -48 42 42 13 100 -51 100 -30 0
-47 13 -147 113 l-112 112 0 670 c0 659 0 670 20 683 29 18 27 76 -2 96 -30
21 -54 20 -78 -4z"/>
<path d="M6400 6755 c-7 -8 -13 -28 -14 -45 -1 -21 -16 -45 -54 -83 l-52 -53
0 -424 0 -425 -190 -190 -190 -190 0 -495 0 -495 -334 -334 c-270 -270 -337
-332 -353 -327 -27 9 -73 -29 -73 -59 0 -47 56 -77 95 -51 19 13 25 25 25 54
0 35 15 52 335 372 l335 335 0 500 0 500 185 185 185 185 0 425 0 426 48 47
c41 40 53 47 75 42 38 -10 63 2 77 35 10 25 10 34 -4 55 -19 29 -75 35 -96 10z"/>
<path d="M6800 6560 c-11 -11 -20 -33 -20 -48 0 -20 -15 -42 -55 -82 l-55 -54
0 -416 0 -415 -175 -175 -175 -175 0 -505 0 -505 -385 -385 -385 -386 0 -1707
c1 -1494 2 -1707 15 -1707 13 0 15 212 15 1703 l0 1702 380 380 380 380 0 505
0 505 180 180 180 180 0 415 0 416 50 49 c43 42 55 49 84 47 40 -4 66 18 66
57 0 55 -61 80 -100 41z"/>
<path d="M4347 6392 c-10 -10 -17 -34 -17 -53 0 -32 -25 -59 -335 -369 l-335
-335 0 -495 0 -494 -189 -191 -188 -190 -2 -425 -2 -425 -46 -46 c-41 -43 -48
-46 -83 -42 -31 4 -40 1 -54 -18 -21 -31 -20 -55 4 -79 39 -39 103 -12 103 44
0 16 17 42 53 77 l54 53 0 426 0 425 190 190 190 190 0 500 0 500 328 328
c311 311 329 327 364 327 60 0 89 59 48 100 -25 25 -62 26 -83 2z"/>
<path d="M5360 6227 c-37 -19 -41 -80 -6 -103 16 -9 35 -14 49 -10 18 5 42
-14 140 -112 l117 -117 0 -664 0 -664 -25 -23 c-30 -28 -32 -57 -5 -84 33 -33
76 -26 99 18 13 24 1 59 -25 75 -12 7 -14 125 -14 680 l0 672 -123 123 c-108
108 -123 126 -119 151 3 22 -3 33 -23 50 -32 25 -32 25 -65 8z"/>
<path d="M6362 6134 c-31 -22 -28 -84 6 -99 22 -10 22 -13 22 -190 l0 -180
-175 -175 -175 -175 0 -505 0 -505 -400 -400 -400 -400 0 -1752 c0 -1552 2
-1753 15 -1753 13 0 15 201 15 1748 l0 1747 395 395 395 395 0 505 0 505 175
175 175 175 0 183 c0 182 0 184 25 214 30 36 32 61 5 88 -24 24 -48 25 -78 4z"/>
<path d="M5974 6005 c-9 -15 -14 -34 -10 -48 4 -19 -11 -39 -89 -117 l-95 -95
0 -675 0 -675 -127 -127 c-127 -127 -128 -128 -166 -121 -28 4 -42 1 -57 -12
-25 -23 -26 -67 -2 -88 40 -36 102 -9 102 44 0 18 37 61 140 164 l140 140 0
670 0 670 88 88 c72 71 93 87 118 87 37 0 64 27 64 63 0 57 -75 80 -106 32z"/>
<path d="M4076 5934 c-9 -8 -16 -25 -16 -37 0 -15 -45 -67 -140 -162 l-140
-140 0 -670 0 -670 -93 -93 c-63 -62 -100 -92 -115 -92 -41 0 -62 -18 -62 -54
0 -60 59 -87 101 -45 16 16 19 28 15 53 -6 29 0 38 89 126 l95 95 0 670 0 670
133 132 c103 103 135 130 147 123 37 -24 90 8 90 53 0 49 -70 76 -104 41z"/>
<path d="M6796 5928 c-21 -30 -20 -54 4 -78 18 -18 20 -33 20 -193 l0 -172
-185 -185 -185 -185 0 -505 0 -505 -385 -385 -385 -385 0 -1667 c0 -1105 3
-1668 10 -1668 7 0 10 561 10 1662 l0 1662 390 391 390 390 0 500 0 500 185
185 185 185 0 173 c0 174 0 174 25 194 29 23 34 68 9 92 -23 24 -70 20 -88 -6z"/>
<path d="M3892 5549 c-35 -13 -48 -53 -28 -84 9 -14 21 -25 26 -25 6 0 10
-241 10 -673 l0 -672 125 -125 c104 -104 123 -128 119 -147 -15 -57 61 -98 99
-55 39 43 4 110 -51 99 -26 -5 -39 5 -145 111 l-117 117 0 672 c0 589 2 672
15 677 8 3 20 17 27 30 21 47 -29 94 -80 75z"/>
<path d="M6146 5214 c-23 -23 -19 -62 9 -88 l25 -23 0 -429 0 -429 -390 -390
-390 -390 0 -1732 c0 -1534 2 -1733 15 -1733 13 0 15 199 15 1728 l0 1727 385
385 385 385 0 439 0 439 25 23 c45 42 24 104 -35 104 -16 0 -36 -7 -44 -16z"/>
<path d="M4161 4093 c-32 -40 -11 -93 38 -93 20 0 53 -27 144 -118 l117 -117
0 -671 c0 -585 -2 -673 -15 -684 -21 -17 -19 -56 5 -80 24 -24 48 -25 78 -4
34 24 28 84 -10 102 l-28 13 0 667 0 667 -119 119 c-102 102 -118 122 -110
138 19 36 -14 88 -56 88 -14 0 -32 -11 -44 -27z"/>
<path d="M6569 4099 c-13 -13 -19 -29 -17 -44 4 -19 -56 -84 -369 -397 l-373
-373 0 -1642 c0 -1089 3 -1643 10 -1643 7 0 10 551 10 1633 l0 1632 370 370
c336 336 373 370 399 367 46 -5 71 13 71 52 0 60 -59 87 -101 45z"/>
<path d="M3847 3852 c-41 -45 -4 -110 55 -98 31 6 38 1 155 -116 l123 -123 0
-661 0 -661 -25 -11 c-38 -17 -52 -55 -32 -85 28 -44 87 -40 108 7 10 20 9 30
-4 49 -14 21 -16 105 -18 700 l-2 676 -129 128 c-80 80 -128 135 -128 148 0
56 -68 86 -103 47z"/>
<path d="M6710 3200 c-14 -14 -20 -30 -18 -45 4 -19 -56 -84 -369 -397 l-373
-373 0 -1192 c0 -789 3 -1193 10 -1193 7 0 10 401 10 1183 l0 1182 369 369
c369 369 370 369 413 370 37 1 45 5 56 30 13 25 12 31 -5 55 -26 34 -65 39
-93 11z"/>
<path d="M270 2335 l0 -25 -20 20 c-11 11 -33 20 -50 20 -23 0 -31 -5 -36 -24
-6 -25 1 -46 15 -46 4 0 7 10 7 23 -1 32 34 34 64 2 32 -34 40 -32 40 15 0 22
-4 40 -10 40 -5 0 -10 -11 -10 -25z"/>
<path d="M235 2250 c-4 -6 -16 -8 -26 -5 -35 11 -60 -22 -40 -53 10 -17 91
-25 108 -11 18 15 16 44 -3 63 -18 19 -30 20 -39 6z m-27 -37 c-4 -22 -22 -20
-26 1 -2 10 3 16 13 16 10 0 15 -7 13 -17z m60 0 c-2 -10 -10 -18 -18 -18 -8
0 -16 8 -18 18 -2 12 3 17 18 17 15 0 20 -5 18 -17z"/>
<path d="M160 2116 c0 -24 5 -36 14 -36 8 0 20 -2 28 -5 8 -3 18 6 25 26 14
37 38 34 38 -4 -1 -15 3 -27 7 -27 16 0 21 31 9 56 -15 33 -51 29 -69 -9 -14
-29 -32 -28 -32 3 0 10 -4 22 -10 25 -6 4 -10 -8 -10 -29z"/>
<path d="M235 2040 c-4 -6 -16 -8 -26 -5 -35 11 -69 -42 -39 -60 20 -12 93
-15 107 -4 18 15 16 44 -3 63 -18 19 -30 20 -39 6z m-27 -37 c-4 -22 -22 -20
-26 1 -2 10 3 16 13 16 10 0 15 -7 13 -17z m60 0 c-2 -10 -10 -18 -18 -18 -8
0 -16 8 -18 18 -2 12 3 17 18 17 15 0 20 -5 18 -17z"/>
<path d="M235 1930 c-4 -6 -16 -8 -26 -5 -35 11 -69 -42 -39 -60 20 -12 93
-15 107 -4 18 15 16 44 -3 63 -18 19 -30 20 -39 6z m-27 -37 c-4 -22 -22 -20
-26 1 -2 10 3 16 13 16 10 0 15 -7 13 -17z m60 0 c-2 -10 -10 -18 -18 -18 -8
0 -16 8 -18 18 -2 12 3 17 18 17 15 0 20 -5 18 -17z"/>
<path d="M222 1818 c-5 -7 -12 -22 -14 -33 -4 -18 -6 -17 -18 8 -14 30 -33 38
-23 10 11 -31 46 -63 69 -63 23 0 54 24 54 41 0 39 -46 64 -68 37z m43 -34 c0
-10 -8 -20 -17 -22 -18 -3 -26 27 -11 42 12 11 28 0 28 -20z"/>
<path d="M222 1708 c-5 -7 -12 -22 -14 -33 -4 -18 -6 -17 -18 8 -14 30 -33 38
-23 10 11 -31 46 -63 69 -63 23 0 54 24 54 41 0 39 -46 64 -68 37z m43 -34 c0
-10 -8 -20 -17 -22 -18 -3 -26 27 -11 42 12 11 28 0 28 -20z"/>
<path d="M160 1575 c0 -25 5 -45 10 -45 6 0 10 14 10 31 0 27 3 30 23 23 12
-3 34 -13 49 -20 31 -16 38 -17 38 -5 0 7 -108 61 -124 61 -3 0 -6 -20 -6 -45z"/>
<path d="M160 1502 c0 -5 7 -17 15 -28 13 -17 14 -17 15 -1 0 14 9 17 50 17
28 0 50 5 50 10 0 6 -28 10 -65 10 -36 0 -65 -4 -65 -8z"/>
<path d="M196 1451 c-4 -6 -12 -9 -17 -6 -5 4 -9 2 -9 -4 0 -5 6 -12 13 -15 9
-5 9 -7 0 -12 -10 -4 -9 -9 2 -20 8 -9 20 -12 26 -8 6 3 14 1 18 -5 5 -8 15
-9 31 -3 19 7 21 10 7 15 -23 9 -22 28 1 20 12 -4 11 0 -7 17 -17 17 -25 20
-31 10 -6 -9 -10 -8 -17 5 -7 12 -12 14 -17 6z m39 -41 c-3 -5 -10 -10 -16
-10 -5 0 -9 5 -9 10 0 6 7 10 16 10 8 0 12 -4 9 -10z"/>
<path d="M140 1280 c0 -6 38 -10 95 -10 57 0 95 4 95 10 0 6 -38 10 -95 10
-57 0 -95 -4 -95 -10z"/>
<path d="M261 1189 c-22 -18 -25 -19 -42 -3 -11 10 -22 14 -27 10 -4 -4 4 -16
17 -27 l23 -19 -46 0 c-34 0 -46 -4 -46 -15 0 -12 15 -15 75 -15 60 0 75 3 75
15 0 9 -9 15 -22 15 l-23 0 24 19 c13 10 22 23 20 29 -2 6 -14 3 -28 -9z"/>
<path d="M190 1081 c0 -27 27 -51 55 -51 24 0 45 25 45 54 0 25 -18 19 -22 -6
-2 -17 -10 -23 -28 -23 -18 0 -26 6 -28 23 -4 27 -22 30 -22 3z"/>
<path d="M206 994 c-19 -18 -20 -28 -6 -55 21 -39 90 -16 90 30 0 16 -30 41
-50 41 -10 0 -26 -7 -34 -16z m59 -29 c0 -22 -31 -33 -47 -17 -17 17 -1 44 24
40 15 -2 23 -10 23 -23z"/>
<path d="M190 900 c0 -5 -7 -10 -15 -10 -8 0 -15 -4 -15 -10 0 -5 6 -10 14
-10 8 0 17 -6 20 -12 5 -10 7 -10 12 0 3 6 21 12 40 12 34 0 56 22 39 38 -4 4
-10 1 -12 -5 -5 -15 -63 -18 -63 -3 0 6 -4 10 -10 10 -5 0 -10 -4 -10 -10z"/>
<path d="M212 810 c-19 -34 -35 -34 -40 -2 -5 30 -22 28 -22 -2 0 -50 54 -61
77 -16 17 34 38 32 38 -3 -1 -32 18 -31 23 2 8 53 -49 69 -76 21z"/>
<path d="M200 675 c-22 -26 3 -65 40 -65 35 0 58 36 45 67 -7 16 -9 15 -13 -7
-6 -40 -22 -48 -22 -12 0 25 -4 32 -19 32 -10 0 -24 -7 -31 -15z m30 -26 c0
-11 -4 -17 -10 -14 -5 3 -10 13 -10 21 0 8 5 14 10 14 6 0 10 -9 10 -21z"/>
<path d="M197 561 c-8 -22 -18 -31 -34 -31 -14 0 -23 -6 -23 -15 0 -23 138
-22 147 2 10 26 -19 68 -50 71 -24 3 -30 -2 -40 -27z m57 3 c28 -11 18 -34
-14 -34 -18 0 -30 5 -30 13 0 25 15 32 44 21z"/>
<path d="M206 464 c-19 -18 -20 -28 -6 -55 21 -39 90 -16 90 30 0 16 -30 41
-50 41 -10 0 -26 -7 -34 -16z m59 -29 c0 -22 -31 -33 -47 -17 -17 17 -1 44 24
40 15 -2 23 -10 23 -23z"/>
<path d="M140 350 c0 -5 11 -10 25 -10 15 0 25 -6 25 -14 0 -45 73 -62 92 -22
20 45 6 56 -72 56 -40 0 -70 -4 -70 -10z m128 -27 c-2 -12 -12 -18 -28 -18
-16 0 -26 6 -28 18 -3 13 3 17 28 17 25 0 31 -4 28 -17z"/>
<path d="M220 246 c-36 -13 -66 -29 -68 -37 -1 -9 20 -21 68 -35 38 -12 70
-17 70 -12 0 6 -9 12 -20 15 -14 4 -20 14 -20 34 0 22 5 29 20 29 11 0 20 7
20 15 0 8 -1 15 -2 14 -2 0 -32 -11 -68 -23z m8 -51 c-7 -7 -48 7 -48 15 0 15
45 16 48 2 2 -8 2 -15 0 -17z"/>
</g>
</svg>
